<svg xmlns="http://www.w3.org/2000/svg" viewBox="0 0 2069.7317 2749.9458" role="img" aria-label="Seedwake">
  <g transform="matrix(0.1,0,0,-0.1,-1013.4012,3423.2065)" fill="#007A3D">
    <path d="m 20290,34220 c -895,-123 -1528,-913 -1425,-1779 18,-149 18,-152 -1,-171 -10,-10 -226,-107 -479,-215 -253,-108 -505,-215 -560,-239 -55,-24 -201,-87 -325,-139 -646,-273 -837,-354 -960,-409 -74,-33 -272,-118 -440,-189 -168,-71 -350,-149 -405,-174 -320,-141 -572,-247 -930,-391 -143,-58 -147,-57 -213,39 -446,649 -1427,713 -1983,130 -539,-567 -481,-1468 129,-1971 100,-83 111,-105 73,-153 -10,-13 -99,-181 -196,-374 -98,-192 -252,-494 -343,-670 -90,-176 -268,-522 -395,-770 -276,-540 -239,-492 -359,-470 -355,66 -628,13 -888,-172 -878,-624 -398,-2032 674,-1980 227,11 355,51 564,175 103,61 125,65 174,31 63,-44 254,-188 345,-261 189,-150 321,-254 438,-343 228,-173 551,-441 560,-463 3,-9 -12,-51 -38,-101 -187,-360 -221,-851 -87,-1252 366,-1101 1678,-1526 2629,-851 575,408 826,1165 621,1877 -43,152 -106,101 625,508 193,107 479,268 638,358 700,399 685,391 726,369 11,-5 53,-56 93,-112 337,-472 960,-830 1589,-913 61,-8 118,-20 125,-26 12,-10 14,-211 14,-1203 0,-1599 -1,-1605 -187,-2116 -447,-1220 -510,-2410 -203,-3795 25,-115 149,-501 218,-680 90,-235 126,-326 170,-426 79,-185 233,-507 350,-734 285,-551 260,-505 670,-1225 464,-813 571,-1134 548,-1645 -54,-1221 -960,-2288 -2199,-2589 -400,-98 -980,-109 -1397,-26 -873,172 -1612,643 -2176,1388 -136,179 -149,193 -169,186 -22,-9 -25,-32 -11,-72 8,-20 33,-98 56,-172 156,-502 439,-1015 821,-1485 710,-876 2230,-1274 3554,-930 1620,421 2819,1757 3009,3355 110,929 -52,1668 -556,2536 -36,61 -68,119 -72,129 -3,10 -43,79 -87,154 -45,75 -120,201 -167,281 -47,80 -116,192 -152,250 -283,444 -621,1050 -817,1464 -56,120 -103,220 -103,223 0,3 -22,55 -49,117 -74,167 -251,639 -305,811 -85,275 -144,491 -180,660 -24,116 -33,161 -76,400 -24,136 -65,478 -81,685 -9,113 -13,739 -16,2296 l -4,2142 25,19 c 18,15 48,22 108,26 575,45 1196,389 1590,881 167,209 131,199 318,93 276,-155 497,-282 584,-334 50,-31 152,-90 226,-133 74,-42 173,-100 220,-127 47,-28 128,-74 180,-103 52,-29 212,-121 355,-204 143,-84 325,-190 405,-237 232,-134 235,-138 191,-264 -288,-816 358,-1705 1239,-1705 1000,0 1624,988 1210,1917 -34,76 -54,55 449,453 187,149 430,346 646,524 193,160 500,403 542,429 55,35 68,34 130,-7 227,-150 388,-200 643,-200 335,-1 585,103 798,333 730,788 43,2032 -1006,1822 -57,-12 -110,-21 -118,-21 -21,0 -34,23 -304,530 -43,80 -112,210 -154,289 -42,79 -103,194 -135,255 -141,269 -281,533 -474,891 -250,463 -240,428 -146,506 368,305 553,837 450,1294 -256,1140 -1644,1460 -2337,538 -65,-87 -74,-90 -155,-59 -69,26 -470,200 -659,286 -182,82 -610,267 -720,310 -25,10 -162,70 -305,132 -143,63 -318,140 -390,171 -71,30 -218,94 -325,140 -107,47 -346,150 -530,230 -184,79 -392,170 -462,201 -199,88 -618,266 -627,266 -36,0 -50,46 -41,135 80,760 -247,1371 -905,1695 -269,132 -609,189 -895,150 z m -1288,-2307 c 8,-10 30,-45 48,-78 46,-83 169,-257 235,-333 30,-34 55,-71 55,-81 0,-42 -87,-204 -260,-486 -37,-60 -137,-231 -222,-380 -86,-148 -217,-376 -293,-505 -76,-129 -161,-275 -188,-325 -27,-49 -58,-101 -67,-115 -10,-14 -47,-77 -82,-140 -60,-106 -212,-369 -328,-565 -26,-44 -93,-161 -150,-260 -57,-99 -122,-211 -145,-250 -23,-38 -63,-110 -90,-160 -26,-49 -63,-115 -81,-145 -18,-30 -67,-113 -109,-185 -42,-71 -86,-140 -98,-152 -43,-48 -29,-56 -627,333 -118,77 -246,160 -285,183 -38,24 -104,65 -145,92 -41,26 -100,63 -130,80 -30,18 -109,67 -175,109 -328,212 -695,439 -930,578 -189,110 -193,119 -147,267 49,155 58,418 22,605 -28,142 -18,159 125,213 28,10 115,47 195,82 80,35 244,106 365,158 121,52 492,212 825,355 333,142 666,285 740,317 379,160 803,341 870,370 231,102 913,390 1010,428 28,10 47,7 62,-10 z m 3084,-27 c 49,-19 145,-60 214,-91 69,-31 168,-74 220,-95 52,-21 183,-76 290,-123 107,-46 249,-108 315,-136 66,-29 181,-79 255,-111 74,-32 225,-97 335,-143 110,-47 304,-129 430,-182 127,-54 307,-132 400,-175 94,-43 249,-110 345,-150 96,-40 375,-160 620,-266 245,-107 463,-202 485,-211 76,-31 85,-46 69,-108 -62,-235 -59,-490 8,-732 38,-137 49,-118 -147,-247 -519,-344 -869,-573 -960,-628 -81,-49 -293,-187 -583,-376 -86,-57 -236,-153 -332,-214 -96,-61 -233,-149 -305,-196 -204,-133 -208,-134 -250,-55 -31,56 -103,188 -285,523 -74,135 -159,292 -190,350 -31,58 -68,123 -82,145 -22,36 -105,189 -233,430 -26,50 -64,119 -85,155 -21,36 -94,171 -163,300 -68,129 -161,300 -206,380 -98,175 -117,211 -331,605 -92,171 -213,391 -268,490 -106,190 -152,281 -152,304 0,8 53,66 119,130 130,127 215,236 275,351 66,127 62,126 192,76 z m -2311,-736 c 132,-59 265,-103 390,-131 49,-11 98,-27 107,-36 28,-25 28,-2899 1,-2932 -15,-18 -38,-24 -124,-36 -632,-82 -1233,-432 -1624,-944 -116,-151 -104,-150 -281,-33 -188,125 -396,261 -562,366 -208,134 -207,102 -12,426 68,113 161,270 206,350 44,80 121,213 169,295 48,83 127,220 175,305 198,351 225,398 260,455 68,110 370,624 475,810 78,139 251,432 306,520 20,33 61,103 90,155 198,358 275,480 302,480 5,0 60,-22 122,-50 z m 1478,-100 c 27,-47 93,-168 147,-270 53,-102 154,-286 222,-410 69,-124 169,-308 223,-410 145,-273 393,-726 435,-796 21,-33 59,-103 85,-155 26,-52 84,-159 128,-239 173,-314 244,-443 357,-645 167,-298 368,-676 375,-705 8,-35 -32,-71 -175,-158 -63,-38 -198,-122 -300,-186 -233,-147 -196,-151 -340,40 -360,478 -907,783 -1625,909 -48,8 -94,20 -102,26 -11,10 -13,259 -13,1470 v 1459 l 23,14 c 12,7 78,26 147,41 69,15 170,45 225,66 131,50 129,51 188,-51 z m -6624,-2132 c 62,-37 405,-249 731,-451 36,-22 137,-88 225,-146 88,-57 223,-144 300,-191 231,-142 462,-287 605,-380 74,-48 214,-137 310,-198 255,-161 248,-131 92,-392 -54,-91 -157,-264 -227,-385 -71,-121 -168,-285 -215,-365 -48,-80 -104,-176 -125,-215 -21,-38 -64,-113 -95,-165 -70,-117 -380,-654 -445,-770 -26,-47 -73,-130 -105,-185 -32,-55 -121,-208 -197,-340 -77,-132 -166,-287 -198,-345 -156,-281 -146,-272 -280,-260 -55,5 -139,9 -186,10 -101,0 -114,9 -124,85 -18,132 -53,325 -130,715 -88,444 -108,550 -151,790 -14,80 -56,305 -94,500 -74,379 -149,769 -181,940 -11,58 -31,159 -44,225 -13,66 -35,183 -50,260 -15,77 -42,217 -60,310 -111,556 -110,509 -11,541 159,51 318,156 479,317 129,129 124,126 176,95 z m 11713,-52 c 105,-121 333,-281 500,-351 111,-47 119,-56 107,-120 -5,-27 -19,-108 -30,-180 -53,-345 -66,-423 -254,-1545 -24,-146 -55,-341 -70,-435 -14,-93 -30,-195 -35,-225 -6,-30 -35,-208 -66,-395 -30,-187 -81,-502 -114,-700 -32,-198 -66,-409 -75,-470 -21,-144 -92,-602 -107,-684 -17,-97 -30,-106 -165,-114 -61,-4 -152,-16 -203,-29 -124,-30 -120,-34 -334,369 -113,213 -224,413 -292,527 -30,48 -54,90 -54,92 0,2 -40,77 -89,166 -49,90 -108,201 -133,248 -61,116 -269,497 -389,711 -55,97 -99,179 -99,183 0,3 -24,50 -54,103 -29,54 -103,188 -163,298 -61,110 -155,283 -210,385 -55,102 -144,264 -197,362 -53,97 -96,183 -96,192 0,21 68,73 258,196 90,58 267,173 395,257 128,83 324,210 437,281 113,71 351,224 530,341 835,543 910,591 935,591 13,0 38,-20 67,-54 z m 1519,-466 c 25,-47 92,-170 149,-275 111,-206 351,-660 487,-925 47,-91 107,-203 133,-250 60,-108 200,-369 200,-374 0,-8 195,-374 216,-406 40,-58 33,-76 -62,-169 -335,-331 -422,-804 -228,-1238 58,-130 91,-89 -331,-420 -251,-197 -580,-459 -780,-622 -488,-398 -547,-443 -573,-434 -9,3 -66,42 -127,87 -99,72 -339,206 -370,206 -6,0 -20,9 -30,20 -25,28 -21,58 109,860 30,184 73,452 96,595 23,143 75,463 115,710 41,248 95,581 120,740 62,383 98,606 140,855 19,113 46,282 60,375 14,94 34,224 45,290 10,66 26,170 35,230 22,155 25,158 156,166 120,7 205,22 280,49 94,33 107,28 160,-70 z m -14661,60 c 41,-11 129,-25 195,-31 166,-14 151,10 219,-339 60,-308 130,-679 171,-910 14,-80 62,-327 105,-550 130,-666 208,-1068 230,-1190 30,-166 81,-434 143,-760 78,-400 103,-568 90,-588 -5,-9 -75,-44 -154,-78 -258,-108 -300,-134 -499,-309 -170,-150 -138,-151 -338,8 -64,51 -184,145 -267,208 -82,63 -202,155 -265,204 -63,49 -149,115 -190,147 -41,32 -162,123 -268,204 -212,160 -212,160 -190,218 9,23 36,93 61,156 160,408 64,841 -258,1160 -47,46 -85,91 -85,98 0,12 121,252 140,277 4,6 65,125 134,265 70,140 134,269 142,285 9,17 57,111 107,210 50,99 100,196 112,215 24,38 259,495 436,850 133,264 136,270 146,270 4,0 42,-9 83,-20 z m 4192,-1273 c 83,-50 252,-157 404,-257 89,-58 224,-146 300,-195 168,-109 167,-107 104,-253 -241,-558 -249,-1175 -23,-1776 71,-190 92,-158 -227,-336 -102,-57 -225,-126 -275,-155 -49,-29 -241,-137 -425,-240 -335,-188 -406,-229 -789,-451 l -204,-118 -36,40 c -20,23 -78,89 -130,147 -149,171 -296,287 -458,362 -168,78 -163,67 -94,198 30,56 86,156 124,222 39,66 99,171 134,234 36,63 76,133 91,155 14,23 68,115 121,206 52,91 126,219 164,285 39,66 90,156 115,200 25,44 82,143 127,220 257,439 337,575 475,815 221,384 292,508 333,575 20,33 48,79 61,103 30,49 52,53 108,19 z m 6045,-139 c 12,-13 40,-61 63,-108 23,-47 80,-151 126,-231 46,-81 84,-149 84,-152 0,-6 169,-322 235,-437 27,-47 75,-137 108,-200 33,-63 99,-185 147,-270 48,-85 148,-267 222,-405 275,-508 330,-610 342,-630 15,-22 167,-305 301,-555 92,-171 189,-347 269,-485 69,-119 66,-127 -94,-252 -36,-28 -83,-70 -105,-92 -21,-23 -46,-41 -54,-41 -15,0 -189,96 -336,186 -38,23 -189,111 -335,195 -710,408 -854,491 -970,556 -379,214 -672,388 -695,413 -16,18 -14,25 38,157 237,599 233,1222 -13,1803 -65,154 -68,146 83,236 61,37 182,113 267,167 290,187 282,183 317,145 z" />
    <path d="m 21090,19330 c -70,-43 18,-1096 136,-1635 89,-406 226,-859 349,-1160 18,-44 49,-119 69,-167 242,-588 616,-1282 1138,-2108 470,-744 760,-1357 878,-1851 495,-2086 -662,-4224 -2730,-5042 -357,-141 -776,-238 -1250,-288 -136,-15 -625,-16 -725,-2 -91,13 -127,-4 -89,-41 54,-55 708,-222 1039,-265 2442,-324 4856,1441 5264,3849 154,908 55,1874 -281,2740 -152,391 -246,603 -425,965 -122,245 -157,312 -249,470 -28,50 -77,135 -107,190 -113,205 -374,639 -522,868 -265,408 -533,805 -660,978 -38,53 -103,143 -144,200 -174,243 -409,554 -527,699 -175,213 -374,475 -509,669 -22,31 -56,77 -76,102 -59,73 -339,495 -458,691 -84,138 -97,153 -121,138 z" />
    <path d="m 19308,18509 c -8,-5 -47,-50 -86,-101 -39,-51 -92,-121 -119,-155 -26,-34 -82,-105 -123,-158 -41,-53 -95,-123 -120,-154 -199,-256 -258,-332 -341,-446 -52,-71 -180,-247 -285,-390 -242,-331 -330,-458 -549,-790 -319,-484 -451,-698 -821,-1325 -111,-189 -464,-872 -526,-1020 -20,-47 -62,-143 -93,-215 -386,-880 -531,-1594 -437,-2140 153,-882 699,-1670 1508,-2173 353,-220 889,-394 1286,-417 57,-3 113,-8 125,-11 25,-5 55,20 47,41 -3,8 -45,35 -92,61 -750,405 -1333,1259 -1447,2119 -93,700 53,1391 452,2140 95,177 470,805 601,1005 316,482 639,1058 726,1295 8,22 49,123 91,225 93,227 157,423 204,620 42,182 42,185 26,367 -46,526 -41,1055 15,1515 12,100 0,131 -42,107 z" />
    <path d="m 19496,15785 c -8,-8 -22,-36 -32,-62 -59,-163 -229,-517 -364,-758 -40,-71 -96,-173 -125,-225 -74,-135 -151,-258 -399,-640 -186,-287 -282,-440 -352,-562 -40,-70 -84,-145 -98,-166 -514,-814 -657,-1876 -355,-2634 574,-1442 2056,-1934 2995,-994 153,154 384,477 384,539 0,32 -34,37 -79,11 -761,-428 -1792,107 -1926,1001 -69,460 54,862 489,1599 276,468 383,659 485,871 139,286 139,260 -11,575 -178,373 -411,952 -503,1250 -65,211 -75,229 -109,195 z" />
  </g>
</svg>
